<svg width="20" height="20" viewBox="0 0 20 20" fill="none" xmlns="http://www.w3.org/2000/svg">
<path d="M12.1311 8.22656C11.3103 8.22656 10.9438 8.6777 10.7387 8.99442V8.33626H9.1929C9.21299 8.77194 9.1929 12.9871 9.1929 12.9871H10.7387V10.3888C10.7387 10.2501 10.7475 10.1107 10.7893 10.0114C10.9013 9.73331 11.1554 9.44556 11.5826 9.44556C12.1419 9.44556 12.3655 9.87198 12.3655 10.4977V12.9859H13.9113H13.9117V10.3189C13.9109 8.89129 13.1481 8.22656 12.1311 8.22656ZM10.7375 9.01064H10.7278C10.7309 9.00524 10.7356 9.00022 10.7375 8.99481V9.01064Z" fill="#336699"/>
<path d="M8.33629 8.33594H6.79053V12.9867H8.33629V8.33594Z" fill="#336699"/>
<path d="M10.411 0C5.12366 0 0.822021 4.30164 0.822021 9.58898C0.822021 14.8759 5.12366 19.178 10.411 19.178C15.698 19.178 20 14.8759 20 9.58898C20 4.30164 15.6987 0 10.411 0ZM15.496 13.9262C15.496 14.334 15.1576 14.6639 14.7393 14.6639H6.01744C5.60029 14.6639 5.26155 14.334 5.26155 13.9262V5.10272C5.26155 4.69523 5.60029 4.36498 6.01744 4.36498H14.7393C15.1572 4.36498 15.496 4.69561 15.496 5.10272V13.9262Z" fill="#336699"/>
<path d="M7.57359 6.18555C7.04521 6.18555 6.69913 6.5324 6.69913 6.98894C6.69913 7.43506 7.03478 7.79234 7.55312 7.79234H7.56316C8.10236 7.79234 8.43801 7.43506 8.43801 6.98894C8.42759 6.53278 8.10275 6.18555 7.57359 6.18555Z" fill="#336699"/>
</svg>
