<svg width="20" height="20" viewBox="0 0 20 20" fill="none" xmlns="http://www.w3.org/2000/svg">
<path d="M10.0339 0.619141C4.91712 0.619141 0.754242 4.78202 0.754242 9.8988C0.754242 15.0152 4.91712 19.1785 10.0339 19.1785C15.1503 19.1785 19.3136 15.0152 19.3136 9.8988C19.3136 4.78202 15.1511 0.619141 10.0339 0.619141ZM14.1736 7.77494C14.1777 7.86689 14.18 7.95959 14.18 8.05229C14.18 10.8748 12.0322 14.1282 8.10254 14.1282C6.89633 14.1282 5.77347 13.7757 4.82853 13.1694C4.99561 13.1893 5.16569 13.1993 5.338 13.1993C6.33901 13.1993 7.25965 12.8577 7.99078 12.2851C7.05631 12.2679 6.26724 11.6504 5.9955 10.8015C6.12558 10.8262 6.25976 10.84 6.39694 10.84C6.59169 10.84 6.78083 10.8146 6.95987 10.7656C5.98279 10.5697 5.2468 9.70667 5.2468 8.67128C5.2468 8.66231 5.2468 8.65296 5.24717 8.64437C5.53499 8.80398 5.8643 8.90041 6.21416 8.91125C5.64152 8.52887 5.26437 7.87474 5.26437 7.13389C5.26437 6.74216 5.3694 6.3751 5.55331 6.05962C6.60627 7.35218 8.18066 8.20218 9.95541 8.29189C9.91877 8.13527 9.90046 7.97267 9.90046 7.80484C9.90046 6.62554 10.8566 5.66902 12.0359 5.66902C12.6504 5.66902 13.2047 5.92842 13.595 6.34333C14.082 6.24764 14.538 6.07046 14.9518 5.82489C14.7911 6.32389 14.4536 6.74216 14.0114 7.0068C14.4439 6.95522 14.8565 6.84084 15.2382 6.67077C14.9533 7.09838 14.5911 7.47479 14.1736 7.77494Z" fill="#336699"/>
</svg>
