<svg width="193" height="31" viewBox="0 0 193 31" fill="none" xmlns="http://www.w3.org/2000/svg">
<path d="M164.628 21.6709C163.399 21.2505 162.196 20.7171 160.94 20.4323C158.304 19.8446 157.156 18.7732 156.758 16.1197C156.532 14.6053 156.64 13.0909 157.269 11.6624C158.001 9.98973 159.43 9.04493 161.116 9.08561C162.761 9.1263 164.072 10.0982 164.71 11.8432C165.428 13.8277 165.478 15.862 164.583 17.7742C164.158 18.6874 163.317 19.4016 162.617 20.265C163.358 20.4504 164.267 20.6809 165.234 20.925C165.157 21.1963 165.089 21.4314 165.022 21.6664C164.886 21.6709 164.759 21.6709 164.628 21.6709ZM157.233 14.7138C157.599 15.8891 157.78 17.069 158.309 18.059C159.529 20.3374 162.359 20.3193 163.575 18.0409C164.746 15.8484 164.746 13.552 163.552 11.364C162.373 9.19863 159.57 9.16246 158.381 11.3233C157.82 12.3404 157.612 13.5474 157.233 14.7138Z" fill="white"/>
<path d="M192.543 20.3138C190.843 20.3138 189.143 20.3138 187.394 20.3138C187.394 16.5436 187.394 12.9498 187.394 9.30615C189.039 9.30615 190.64 9.30615 192.236 9.30615C192.276 9.39656 192.321 9.48698 192.362 9.57739C192.118 9.69492 191.878 9.90739 191.634 9.91643C190.509 9.9526 189.383 9.93452 188.185 9.93452C188.185 11.3449 188.185 12.6785 188.185 14.1115C189.288 14.1115 190.378 14.098 191.463 14.1251C191.666 14.1296 191.86 14.315 192.059 14.4144C191.851 14.5455 191.648 14.7761 191.435 14.7851C190.373 14.8213 189.315 14.8032 188.181 14.8032C188.181 16.4035 188.181 17.9269 188.181 19.5408C189.65 19.5408 191.092 19.5408 192.538 19.5408C192.543 19.7939 192.543 20.0516 192.543 20.3138Z" fill="white"/>
<path d="M27.9187 22.9755C28.2641 23.0428 28.6123 23.1716 28.9577 23.1716C32.092 23.1628 35.2292 23.154 38.3635 23.0955C40.1604 23.0603 41.6062 22.2438 42.7592 20.8801C44.9453 18.293 46.0164 14.7022 43.7191 11.164C42.4022 9.13296 40.4531 8.07356 38.0533 7.99162C35.5687 7.90675 33.0782 7.96528 30.5877 7.95942C30.2131 7.95942 29.8386 7.95942 29.4259 7.95942C29.4259 5.30798 29.4259 2.72678 29.4259 0.0489996C30.4853 0.0489996 31.5038 0.0665589 32.5193 0.0460731C35.3843 -0.00953105 38.2523 -0.120739 41.0794 0.476274C45.3521 1.37472 48.5303 3.81252 50.7486 7.538C53.1045 11.4888 53.1689 15.6796 52.0773 20.008C50.9681 24.3978 48.3664 27.5672 44.319 29.5338C42.2558 30.5376 40.0053 30.8654 37.7431 30.921C34.4625 31.003 31.1818 30.9532 27.8983 30.962C27.8983 30.0284 27.8983 29.0978 27.8983 28.0969C27.5998 28.0969 27.3744 28.0969 27.152 28.0969C24.7317 28.0969 22.3115 28.0969 19.8913 28.0969C19.6191 28.0969 19.3411 28.1291 19.0777 28.0823C18.5772 27.9916 18.2407 27.7165 18.2407 27.1575C18.2407 26.5985 18.5831 26.3351 19.0806 26.2327C19.2416 26.2005 19.4142 26.221 19.581 26.221C22.1066 26.221 24.6322 26.221 27.1549 26.221C27.3773 26.221 27.6027 26.221 27.9158 26.221C27.9187 25.0914 27.9187 24.032 27.9187 22.9755Z" fill="white"/>
<path d="M26.9761 22.9758C26.9761 24.0323 26.9761 24.6388 26.9761 25.7655C26.663 25.7655 26.45 25.7655 26.2276 25.7655C23.702 25.7655 22.1066 25.7655 19.5839 25.7655C19.4171 25.7655 19.2445 25.7451 19.0835 25.7772C18.1391 25.7772 17.674 26.5959 17.674 27.1549C17.674 27.7138 18.1391 28.5562 19.0806 28.5415C19.344 28.5884 19.622 28.5562 19.8942 28.5562C22.3144 28.5562 23.8044 28.5562 26.2247 28.5562C26.45 28.5562 26.6776 28.5562 26.9761 28.5562C26.9761 29.5541 26.9761 30.0258 26.9761 30.9594C26.7888 30.9711 26.5964 30.9916 26.4091 30.9916C17.8372 30.9974 9.26834 30.9974 0.696515 31.0003C0.512143 31.0003 0.324845 31.0003 0 31.0003C5.15363 21.0179 10.2604 11.1292 15.3994 1.1731C15.5165 1.33406 15.6101 1.43356 15.6716 1.55062C19.3912 8.55674 23.2623 15.5629 26.9761 22.569C27.0463 22.6978 26.9234 22.8382 26.9761 22.9758ZM18.3991 23.1075C17.4158 20.9389 16.4501 18.8113 15.4316 16.5637C14.3547 18.8055 13.345 20.9126 12.2914 23.1075C14.381 23.1075 16.3418 23.1075 18.3991 23.1075Z" fill="white"/>
<path d="M121.836 10.7843C121.836 13.6684 121.845 16.5435 121.818 19.4141C121.814 19.6898 121.579 19.9656 121.452 20.2414C121.321 19.9656 121.077 19.6944 121.077 19.4186C121.05 16.0643 121.059 12.7101 121.294 9.14331C121.588 9.37386 121.986 9.54112 122.162 9.83948C123.717 12.4795 125.231 15.1467 126.759 17.8002C126.877 18.0082 127.022 18.1981 127.257 18.5507C127.257 17.3572 127.257 16.3763 127.257 15.3908C127.257 13.5825 127.261 11.7743 127.252 9.96606C127.252 9.50044 127.27 9.09358 127.966 9.33317C127.966 12.9316 127.966 16.5345 127.966 20.1374C127.899 20.2007 127.831 20.2685 127.763 20.3318C127.483 20.0877 127.112 19.8933 126.936 19.5859C125.227 16.6791 123.545 13.7453 121.836 10.7843Z" fill="white"/>
<path d="M79.6095 20.3594C79.6095 16.7113 79.5959 13.3254 79.6366 9.93948C79.6411 9.71797 80.0208 9.32468 80.2424 9.31112C81.3002 9.24783 82.3806 9.16646 83.4203 9.31112C85.2466 9.56879 86.4356 10.6763 86.9328 12.4755C87.3578 14.0125 87.3035 15.5495 86.7972 17.0458C86.2276 18.7411 85.0477 19.8396 83.2666 20.1153C82.1048 20.3007 80.9159 20.2826 79.6095 20.3594ZM80.3599 19.4553C83.6283 20.3323 86.101 18.61 86.3406 15.3597C86.3678 15.0071 86.3813 14.6499 86.3768 14.2973C86.3406 10.7125 84.0758 9.53715 80.9159 9.89879C80.7125 9.9214 80.387 10.2876 80.387 10.5C80.3508 13.4881 80.3599 16.4808 80.3599 19.4553Z" fill="white"/>
<path d="M66.6581 16.4221C66.1608 17.724 65.6952 18.9762 65.1979 20.2103C65.1753 20.2646 64.9041 20.2194 64.66 20.2194C64.7187 19.9346 64.7459 19.695 64.8182 19.469C65.8353 16.3136 66.8525 13.1582 67.8967 10.0119C67.9916 9.7271 68.2719 9.50559 68.4663 9.25696C68.6743 9.48751 68.9907 9.68189 69.0766 9.95313C70.1932 13.3074 71.2781 16.6752 72.3676 20.0386C72.2998 20.1199 72.232 20.2013 72.1642 20.2827C71.9246 20.0928 71.5674 19.9482 71.468 19.704C71.138 18.8677 70.8532 18.0088 70.6407 17.1318C70.4961 16.5351 70.1887 16.3859 69.6191 16.4085C68.6336 16.4537 67.6345 16.4221 66.6581 16.4221ZM66.8299 15.6852C68.0052 15.6852 69.0359 15.6852 70.1525 15.6852C69.5919 13.9222 69.0676 12.2767 68.4799 10.4368C67.8967 12.2993 67.3814 13.9403 66.8299 15.6852Z" fill="white"/>
<path d="M113.925 20.278C112.633 20.1514 112.868 19.1523 112.596 18.5601C112.289 17.8956 112.122 17.1678 111.891 16.4581C110.612 16.4581 109.391 16.4581 108.157 16.4581C107.655 17.7193 107.163 18.9806 106.638 20.2282C106.616 20.2825 106.349 20.2373 106.069 20.2373C106.86 17.7871 107.619 15.4409 108.379 13.0948C108.736 11.9917 109.066 10.8797 109.455 9.7902C109.531 9.57773 109.794 9.34719 110.006 9.29746C110.137 9.26582 110.44 9.53705 110.503 9.72239C111.643 13.1671 112.75 16.6253 113.925 20.278ZM109.97 10.4095C109.378 12.3127 108.858 13.9898 108.324 15.7031C109.5 15.7031 110.512 15.7031 111.638 15.7031C111.086 13.9582 110.567 12.3127 109.97 10.4095Z" fill="white"/>
<path d="M172.585 9.35193C173.326 9.09426 173.353 9.48303 173.353 9.96221C173.344 12.0281 173.321 14.0986 173.367 16.1645C173.38 16.829 173.493 17.5161 173.697 18.1535C174.009 19.139 174.754 19.6724 175.799 19.7222C176.906 19.7764 177.81 19.2837 178.186 18.2665C178.425 17.6156 178.561 16.8923 178.574 16.1961C178.62 13.9358 178.592 11.6755 178.592 9.3881C179.112 9.15303 179.375 9.2118 179.37 9.84468C179.352 12.1366 179.42 14.4331 179.329 16.725C179.239 18.9763 178.009 20.2827 176.097 20.3777C174.37 20.4635 173.181 19.5866 172.784 17.9004C172.68 17.4619 172.603 17.0098 172.598 16.5623C172.576 14.1754 172.585 11.7885 172.585 9.35193Z" fill="white"/>
<path d="M94.6179 20.261C94.5953 19.8812 94.5772 19.6597 94.5772 19.4382C94.5772 16.0794 94.5772 12.7251 94.5772 9.37084C95.2779 9.07701 95.3909 9.40701 95.3864 9.96756C95.3728 12.7794 95.3819 15.5867 95.3819 18.3985C95.3819 18.7466 95.3819 19.0946 95.3819 19.5557C96.6883 19.5557 97.9044 19.5377 99.1204 19.5738C99.3284 19.5783 99.5273 19.8089 99.7352 19.9355C99.5408 20.044 99.3464 20.2474 99.152 20.2474C97.6648 20.2745 96.1865 20.261 94.6179 20.261Z" fill="white"/>
<path d="M137.894 10.0207C136.822 9.62288 135.674 10.2422 134.761 9.64548C134.774 9.51891 134.792 9.38781 134.806 9.26123C136.375 9.26123 137.943 9.26123 139.512 9.26123C139.964 9.26123 140.421 9.22507 140.864 9.2748C141.166 9.30644 141.456 9.45562 141.754 9.55055C141.474 9.66357 141.194 9.85343 140.909 9.87603C140.208 9.92576 139.503 9.8896 138.658 9.8896C138.658 10.301 138.658 10.6445 138.658 10.9836C138.658 13.7592 138.671 16.5349 138.639 19.306C138.635 19.6179 138.413 19.9253 138.296 20.2372C138.16 19.9389 137.912 19.6405 137.907 19.3422C137.875 16.5665 137.889 13.7909 137.889 11.0197C137.894 10.6671 137.894 10.3236 137.894 10.0207Z" fill="white"/>
<path d="M148.852 9.1532C149.001 9.37019 149.272 9.58718 149.276 9.80416C149.304 13.0997 149.304 16.3952 149.281 19.6907C149.281 19.876 149.05 20.0569 148.928 20.2377C148.797 20.0704 148.549 19.9032 148.544 19.7314C148.522 16.2777 148.526 12.8284 148.526 9.37471C148.635 9.30238 148.743 9.22553 148.852 9.1532Z" fill="white"/>
</svg>
