<svg width="89" height="54" viewBox="0 0 89 54" fill="none" xmlns="http://www.w3.org/2000/svg">
<path d="M69.5728 53.4105C68.7171 53.1179 67.8802 52.7467 67.0056 52.5485C65.1714 52.1395 64.3723 51.3938 64.0955 49.5471C63.9382 48.4931 64.0137 47.4392 64.451 46.445C64.9607 45.281 65.9548 44.6234 67.1283 44.6518C68.2735 44.6801 69.1859 45.3565 69.6295 46.5709C70.1297 47.952 70.1643 49.3678 69.5414 50.6986C69.2456 51.3341 68.6605 51.8312 68.1728 52.4321C68.6888 52.5611 69.3211 52.7215 69.9944 52.8914C69.9409 53.0802 69.8937 53.2438 69.8465 53.4074C69.7522 53.4105 69.6641 53.4105 69.5728 53.4105ZM64.4258 48.5687C64.6806 49.3866 64.8065 50.2078 65.1746 50.8968C66.024 52.4824 67.9935 52.4698 68.8398 50.8842C69.6546 49.3583 69.6546 47.7601 68.8241 46.2374C68.0029 44.7304 66.0523 44.7052 65.2249 46.2091C64.8348 46.9169 64.6901 47.757 64.4258 48.5687Z" fill="#406F9F"/>
<path d="M89 52.4667C87.817 52.4667 86.6341 52.4667 85.4166 52.4667C85.4166 49.8428 85.4166 47.3417 85.4166 44.8059C86.5617 44.8059 87.6755 44.8059 88.786 44.8059C88.8144 44.8688 88.8458 44.9318 88.8741 44.9947C88.7042 45.0765 88.5375 45.2243 88.3676 45.2306C87.5842 45.2558 86.8008 45.2432 85.9671 45.2432C85.9671 46.2248 85.9671 47.1529 85.9671 48.1502C86.7348 48.1502 87.493 48.1408 88.2481 48.1596C88.3896 48.1628 88.5249 48.2918 88.6633 48.361C88.5186 48.4522 88.377 48.6127 88.2292 48.619C87.4898 48.6441 86.7537 48.6316 85.964 48.6316C85.964 49.7453 85.964 50.8055 85.964 51.9287C86.9865 51.9287 87.9901 51.9287 88.9968 51.9287C89 52.1049 89 52.2842 89 52.4667Z" fill="#4472A1"/>
<path d="M45.1528 24.6992C45.5241 24.7716 45.8985 24.91 46.2697 24.91C49.6392 24.9006 53.0118 24.8911 56.3813 24.8282C58.313 24.7905 59.8671 23.9127 61.1067 22.4466C63.4568 19.6655 64.6083 15.8052 62.1386 12.0016C60.7229 9.81817 58.6276 8.67928 56.0478 8.59119C53.3767 8.49995 50.6994 8.56287 48.0221 8.55658C47.6194 8.55658 47.2167 8.55658 46.7731 8.55658C46.7731 5.70622 46.7731 2.93136 46.7731 0.0526759C47.912 0.0526759 49.0068 0.0715525 50.0985 0.0495298C53.1785 -0.0102461 56.2617 -0.129798 59.3008 0.512006C63.8942 1.47786 67.3108 4.09856 69.6956 8.10354C72.2282 12.3508 72.2974 16.856 71.1239 21.5091C69.9315 26.2282 67.1346 29.6354 62.7836 31.7496C60.5656 32.8287 58.1462 33.1811 55.7143 33.2409C52.1875 33.329 48.6607 33.2755 45.1308 33.2849C45.1308 32.2813 45.1308 31.2809 45.1308 30.2049C44.8099 30.2049 44.5677 30.2049 44.3286 30.2049C41.7267 30.2049 39.1249 30.2049 36.5231 30.2049C36.2305 30.2049 35.9316 30.2395 35.6485 30.1892C35.1105 30.0916 34.7487 29.7959 34.7487 29.195C34.7487 28.5941 35.1168 28.3109 35.6516 28.2008C35.8247 28.1662 36.0103 28.1882 36.1896 28.1882C38.9047 28.1882 41.6198 28.1882 44.3317 28.1882C44.5708 28.1882 44.8131 28.1882 45.1497 28.1882C45.1528 26.9738 45.1528 25.835 45.1528 24.6992Z" fill="#01CBFE"/>
<path d="M45.1528 24.6989C45.1528 25.8347 45.1528 26.9736 45.1528 28.1848C44.8162 28.1848 44.5739 28.1848 44.3348 28.1848C41.6197 28.1848 38.9046 28.1848 36.1927 28.1848C36.0134 28.1848 35.8278 28.1628 35.6547 28.1974C35.1199 28.3075 34.7518 28.5907 34.7518 29.1916C34.7518 29.7925 35.1136 30.0882 35.6516 30.1857C35.9347 30.2361 36.2336 30.2015 36.5262 30.2015C39.128 30.2015 41.7298 30.2015 44.3317 30.2015C44.5739 30.2015 44.813 30.2015 45.1339 30.2015C45.1339 31.2743 45.1339 32.2779 45.1339 33.2815C44.9326 33.2941 44.7312 33.3161 44.5299 33.3161C35.3149 33.3224 26.1032 33.3224 16.8882 33.3255C16.69 33.3255 16.4887 33.3255 16.1395 33.3255C21.6797 22.5942 27.1697 11.9635 32.6942 1.2605C32.8201 1.43353 32.9208 1.5405 32.9868 1.66634C36.9855 9.19811 40.9842 16.7299 44.9766 24.2616C45.0521 24.4001 45.0962 24.5511 45.1528 24.6989ZM35.919 24.8405C34.8619 22.5093 33.8237 20.222 32.7288 17.8058C31.5711 20.2157 30.4857 22.4809 29.3531 24.8405C31.5994 24.8405 33.7073 24.8405 35.919 24.8405Z" fill="#336699"/>
<path d="M39.7919 45.8347C39.7919 47.8419 39.7982 49.8428 39.7793 51.8406C39.7762 52.0325 39.6126 52.2244 39.5245 52.4163C39.4332 52.2244 39.2633 52.0356 39.2633 51.8437C39.2445 49.5093 39.2508 47.1749 39.4144 44.6926C39.6189 44.8531 39.8957 44.9695 40.0184 45.1771C41.1007 47.0144 42.1546 48.8706 43.218 50.7174C43.2998 50.8621 43.4005 50.9943 43.5641 51.2397C43.5641 50.4091 43.5641 49.7264 43.5641 49.0405C43.5641 47.7821 43.5672 46.5237 43.5609 45.2652C43.5609 44.9412 43.5735 44.658 44.058 44.8248C44.058 47.3291 44.058 49.8365 44.058 52.3439C44.0108 52.388 43.9636 52.4352 43.9164 52.4792C43.7214 52.3093 43.4634 52.1741 43.3407 51.9601C42.1515 49.9372 40.9811 47.8954 39.7919 45.8347Z" fill="#4573A1"/>
<path d="M10.4041 52.4985C10.4041 49.9595 10.3947 47.6031 10.423 45.2467C10.4261 45.0925 10.6904 44.8188 10.8446 44.8094C11.5807 44.7653 12.3327 44.7087 13.0563 44.8094C14.3273 44.9887 15.1547 45.7595 15.5008 47.0117C15.7965 48.0813 15.7588 49.151 15.4064 50.1924C15.01 51.3721 14.1889 52.1366 12.9493 52.3286C12.1407 52.4576 11.3133 52.445 10.4041 52.4985ZM10.9263 51.8692C13.201 52.4796 14.9219 51.2809 15.0886 49.0189C15.1075 48.7735 15.117 48.5249 15.1138 48.2795C15.0886 45.7847 13.5124 44.9667 11.3133 45.2184C11.1717 45.2341 10.9452 45.4889 10.9452 45.6368C10.9201 47.7164 10.9263 49.7991 10.9263 51.8692Z" fill="#3D6D9D"/>
<path d="M1.39058 49.7578C1.0445 50.6639 0.720457 51.5354 0.374386 52.3942C0.358655 52.432 0.169889 52.4005 0 52.4005C0.0408993 52.2023 0.0597759 52.0356 0.110113 51.8783C0.817986 49.6823 1.52586 47.4863 2.25261 45.2966C2.31868 45.0984 2.51373 44.9443 2.64902 44.7712C2.79374 44.9317 3.01396 45.067 3.07374 45.2557C3.85083 47.5901 4.60589 49.934 5.3641 52.2747C5.31691 52.3313 5.26972 52.3879 5.22252 52.4446C5.05578 52.3124 4.80724 52.2118 4.73803 52.0419C4.50836 51.4598 4.31016 50.8621 4.16229 50.2517C4.06161 49.8365 3.84768 49.7326 3.45127 49.7484C2.76542 49.7798 2.07013 49.7578 1.39058 49.7578ZM1.51013 49.245C2.32811 49.245 3.04542 49.245 3.82251 49.245C3.43239 48.018 3.06745 46.8728 2.65845 45.5924C2.25261 46.8886 1.89395 48.0306 1.51013 49.245Z" fill="#41709F"/>
<path d="M34.2862 52.4412C33.3864 52.3532 33.55 51.6579 33.3612 51.2457C33.1473 50.7833 33.0309 50.2767 32.8704 49.7828C31.9801 49.7828 31.1307 49.7828 30.2718 49.7828C29.9225 50.6606 29.5796 51.5383 29.2147 52.4066C29.1989 52.4444 29.0133 52.4129 28.8183 52.4129C29.3688 50.7077 29.8974 49.0749 30.4259 47.4421C30.6745 46.6744 30.9041 45.9005 31.1747 45.1423C31.2282 44.9944 31.4107 44.834 31.5585 44.7994C31.6498 44.7774 31.8605 44.9661 31.9046 45.0951C32.6974 47.4924 33.4682 49.8992 34.2862 52.4412ZM31.5334 45.5733C31.1212 46.8978 30.7594 48.065 30.3882 49.2574C31.2062 49.2574 31.9109 49.2574 32.6943 49.2574C32.3104 48.043 31.9486 46.8978 31.5334 45.5733Z" fill="#4271A0"/>
<path d="M75.11 44.8378C75.6259 44.6585 75.6448 44.929 75.6448 45.2625C75.6385 46.7003 75.6228 48.1412 75.6543 49.579C75.6637 50.0414 75.7423 50.5196 75.8839 50.9632C76.101 51.6491 76.6201 52.0203 77.3469 52.0549C78.1177 52.0927 78.7469 51.7498 79.008 51.0419C79.1747 50.5889 79.2691 50.0855 79.2786 49.601C79.31 48.0279 79.2911 46.4549 79.2911 44.863C79.6529 44.6994 79.8354 44.7403 79.8323 45.1807C79.8197 46.7758 79.8669 48.374 79.804 49.9691C79.741 51.5358 78.8853 52.4451 77.5545 52.5111C76.3527 52.5709 75.5253 51.9606 75.2484 50.7871C75.176 50.4819 75.1226 50.1673 75.1194 49.8558C75.1037 48.1947 75.11 46.5335 75.11 44.8378Z" fill="#3C6C9D"/>
<path d="M20.8492 52.4292C20.8334 52.1649 20.8209 52.0107 20.8209 51.8566C20.8209 49.519 20.8209 47.1846 20.8209 44.8502C21.3085 44.6457 21.3872 44.8754 21.384 45.2655C21.3746 47.2224 21.3809 49.1761 21.3809 51.133C21.3809 51.3752 21.3809 51.6175 21.3809 51.9384C22.2901 51.9384 23.1364 51.9258 23.9827 51.951C24.1274 51.9541 24.2658 52.1146 24.4106 52.2026C24.2753 52.2782 24.14 52.4197 24.0047 52.4197C22.9696 52.4386 21.9409 52.4292 20.8492 52.4292Z" fill="#4C79A5"/>
<path d="M50.9668 45.303C50.2212 45.0262 49.4221 45.4572 48.7866 45.0419C48.796 44.9538 48.8086 44.8626 48.818 44.7745C49.9097 44.7745 51.0014 44.7745 52.0931 44.7745C52.4077 44.7745 52.7255 44.7493 53.0338 44.7839C53.2446 44.8059 53.4459 44.9097 53.6536 44.9758C53.4585 45.0545 53.2635 45.1866 53.0653 45.2023C52.5776 45.2369 52.0868 45.2118 51.4985 45.2118C51.4985 45.4981 51.4985 45.7372 51.4985 45.9731C51.4985 47.9048 51.5079 49.8365 51.4859 51.7651C51.4828 51.9822 51.3286 52.1961 51.2468 52.4132C51.1524 52.2056 50.9794 51.9979 50.9762 51.7903C50.9542 49.8586 50.9637 47.9269 50.9637 45.9983C50.9668 45.7529 50.9668 45.5138 50.9668 45.303Z" fill="#3B6B9C"/>
<path d="M58.593 44.699C58.6968 44.85 58.8855 45.001 58.8887 45.152C58.9076 47.4455 58.9076 49.739 58.8918 52.0325C58.8918 52.1615 58.7314 52.2874 58.6464 52.4132C58.5552 52.2968 58.3822 52.1804 58.379 52.0608C58.3633 49.6572 58.3664 47.2568 58.3664 44.8531C58.4419 44.8028 58.5175 44.7493 58.593 44.699Z" fill="#3F6F9E"/>
</svg>
