<svg width="20" height="20" viewBox="0 0 20 20" fill="none" xmlns="http://www.w3.org/2000/svg">
<path fill-rule="evenodd" clip-rule="evenodd" d="M10.1207 0.308594C4.91029 0.308594 0.686401 4.53248 0.686401 9.74292C0.686401 14.9533 4.91029 19.1772 10.1207 19.1772C15.3312 19.1772 19.555 14.9533 19.555 9.74292C19.555 4.53248 15.3312 0.308594 10.1207 0.308594ZM8.05775 4.94862H12.4929C13.9992 4.94862 15.2246 6.17403 15.2245 7.68019V12.1153C15.2245 13.6215 13.9992 14.8469 12.4929 14.8469H8.05775C6.55159 14.8469 5.32623 13.6216 5.32623 12.1153V7.68019C5.32623 6.17403 6.55159 4.94862 8.05775 4.94862ZM12.493 13.9687C13.5149 13.9687 14.3464 13.1373 14.3464 12.1153H14.3463V7.68019C14.3463 6.65829 13.5149 5.82684 12.4929 5.82684H8.05775C7.03584 5.82684 6.20446 6.65829 6.20446 7.68019V12.1153C6.20446 13.1373 7.03584 13.9688 8.05775 13.9687H12.493ZM10.2754 7.34735C8.869 7.34735 7.72485 8.4915 7.72485 9.89789C7.72485 11.3042 8.869 12.4483 10.2754 12.4483C11.6818 12.4483 12.8259 11.3042 12.8259 9.89789C12.8259 8.4915 11.6818 7.34735 10.2754 7.34735ZM10.2754 11.57C9.35331 11.57 8.60307 10.8199 8.60307 9.89783C8.60307 8.9757 9.35325 8.22552 10.2754 8.22552C11.1975 8.22552 11.9477 8.9757 11.9477 9.89783C11.9477 10.8199 11.1975 11.57 10.2754 11.57ZM12.478 6.7913C12.5975 6.67128 12.7637 6.60278 12.9329 6.60278C13.1027 6.60278 13.269 6.67128 13.3884 6.7913C13.5085 6.91074 13.577 7.07702 13.577 7.24681C13.577 7.41601 13.5085 7.58229 13.3884 7.70231C13.2684 7.82175 13.1027 7.89084 12.9329 7.89084C12.7637 7.89084 12.5974 7.82175 12.478 7.70231C12.358 7.58229 12.2889 7.41607 12.2889 7.24681C12.2889 7.07702 12.3579 6.91074 12.478 6.7913Z" fill="#336699"/>
</svg>
