<svg width="371" height="368" viewBox="0 0 371 368" fill="none" xmlns="http://www.w3.org/2000/svg">
<path d="M215.591 22.4406C214.944 20.9606 208.006 5.51308 192.929 1.62807C168.139 -4.75445 135.579 24.1056 133.081 54.5382C132.989 56.1107 131.139 81.7333 147.326 91.7233C164.809 102.546 191.634 87.6533 204.676 71.6507C207.636 68.0432 225.489 45.1957 215.591 22.4406Z" fill="url(#paint0_linear)"/>
<path d="M223.824 79.3286C217.904 85.0636 208.099 87.2836 200.236 84.2311C186.546 78.8661 180.904 58.2386 187.934 43.8085C192.836 33.911 204.584 25.031 213.926 27.621C229.096 31.5985 237.884 65.6386 223.824 79.3286Z" fill="#0D9333"/>
<path d="M168.971 86.6344C167.399 82.0094 161.941 79.4194 157.501 79.3269C148.899 79.2344 140.389 88.2069 142.331 95.2369C143.811 100.509 151.119 103.932 157.224 102.822C164.809 101.434 171.191 93.1094 168.971 86.6344Z" fill="#13B548"/>
<path d="M199.311 6.62287C196.444 10.1379 197.924 15.8729 200.606 18.9254C205.971 24.9379 218.644 22.9954 220.679 17.9079C222.344 13.7454 217.071 6.34537 210.411 4.40287C209.764 4.31037 202.734 2.36786 199.311 6.62287Z" fill="#8DCE3A"/>
<path d="M42.8934 6.25421C25.5958 8.75172 10.2408 28.7318 9.4083 48.5268C8.1133 76.5544 36.1409 97.7369 61.3009 100.419C63.0584 100.604 92.196 103.379 101.169 87.6544C115.136 63.2344 76.471 1.5367 42.8934 6.25421Z" fill="url(#paint1_linear)"/>
<path d="M67.8684 4.49683C61.9484 10.2318 63.1509 20.4069 66.4809 26.4194C73.0484 38.3519 92.1035 42.0519 98.2085 35.7619C104.961 28.7319 98.2085 6.43933 84.611 1.72182C79.801 0.0568166 72.5859 0.0568165 67.8684 4.49683Z" fill="#F50F72"/>
<path d="M95.0635 47.4179C91.271 49.7304 89.791 54.2629 90.2535 57.8704C91.1785 64.8079 99.411 70.0804 105.054 67.8604C110.974 65.5479 113.471 54.9104 108.476 49.4529C105.424 46.1229 99.596 44.6429 95.0635 47.4179Z" fill="#6251D3"/>
<path d="M10.1483 95.8863C13.8483 100.419 21.1558 105.044 27.7233 102.731C36.1409 99.7714 39.7484 86.6363 35.3083 77.4788C30.8683 68.2288 18.5658 63.1413 11.3508 67.3963C3.21076 72.0213 3.21076 87.3763 10.1483 95.8863Z" fill="#6251D3"/>
<path d="M64.3534 23.8281H42.2458C32.7183 23.8281 25.0408 31.5981 25.0408 41.0332V63.1407C25.0408 72.6683 32.8108 80.3458 42.2458 80.3458H64.3534C73.8809 80.3458 81.5584 72.5758 81.5584 63.1407V41.0332C81.5584 31.5056 73.8809 23.8281 64.3534 23.8281ZM77.1184 61.0132C77.1184 69.2457 70.4584 75.9058 62.2259 75.9058H44.3734C36.1408 75.9058 29.4808 69.2457 29.4808 61.0132V43.1607C29.4808 34.9282 36.1408 28.2681 44.3734 28.2681H62.2259C70.4584 28.2681 77.1184 34.9282 77.1184 43.1607V61.0132Z" fill="white"/>
<path d="M54.0859 37.5195C46.0384 37.5195 39.3784 44.087 39.3784 52.2271C39.3784 60.3671 45.9459 66.9346 54.0859 66.9346C62.1334 66.9346 68.7934 60.3671 68.7934 52.2271C68.7934 44.087 62.1334 37.5195 54.0859 37.5195ZM54.0859 61.8471C48.8134 61.8471 44.4659 57.4996 44.4659 52.2271C44.4659 46.9546 48.8134 42.607 54.0859 42.607C59.3584 42.607 63.7059 46.9546 63.7059 52.2271C63.7059 57.4996 59.3584 61.8471 54.0859 61.8471Z" fill="white"/>
<path d="M68.1459 33.4492C66.2959 33.4492 64.8159 34.9292 64.8159 36.7792C64.8159 38.6292 66.2959 40.1092 68.1459 40.1092C69.9959 40.1092 71.4759 38.6292 71.4759 36.7792C71.5684 34.9292 69.9959 33.4492 68.1459 33.4492Z" fill="white"/>
<path d="M328.349 4.40363C324.002 3.57112 306.057 0.888618 288.204 11.8961C272.849 21.4237 252.406 44.2712 259.714 67.7663C268.316 95.3314 309.017 103.656 324.557 92.0014C336.212 83.3063 328.812 71.9288 346.664 50.2837C354.897 40.3862 361.464 33.2637 361.279 26.7887C361.002 15.6887 341.854 6.90113 328.349 4.40363Z" fill="url(#paint2_linear)"/>
<path d="M337.692 69.338C335.194 67.488 329.274 63.233 323.909 65.083C314.844 68.228 309.017 88.2081 318.637 98.1056C326.684 106.338 343.519 105.321 348.792 96.9031C354.157 88.3931 345.832 75.2581 337.692 69.338Z" fill="#DC0F0C"/>
<path d="M295.882 4.31098C289.777 0.518468 281.082 -0.869036 274.421 2.92347C261.656 10.046 260.824 33.1711 270.259 40.3861C280.619 48.2486 304.854 38.8136 306.797 24.106C307.814 16.521 302.634 8.47349 295.882 4.31098Z" fill="#BA0000"/>
<path d="M248.891 43.3445C247.411 48.1545 250.556 54.0745 255.736 55.647C260.731 57.127 266.374 54.4445 267.669 50.7445C269.519 45.102 261.379 36.407 254.811 37.702C252.036 38.257 249.724 40.662 248.891 43.3445Z" fill="#BA0000"/>
<path d="M330.291 44.2797H307.845V51.762H321.539C319.497 58.2668 313.421 62.9853 306.241 62.9853C297.386 62.9853 290.208 55.8067 290.208 46.952C290.208 38.0969 297.386 30.9189 306.241 30.9189C310.7 30.9189 314.734 32.7396 317.64 35.6777L323.071 29.7743C318.733 25.524 312.794 22.9023 306.241 22.9023C292.959 22.9022 282.191 33.6697 282.191 46.952C282.191 60.2343 292.959 71.002 306.241 71.002C317.876 71.002 328.063 62.7392 330.291 51.7621V44.2799L330.291 44.2797Z" fill="#FBFBFB"/>
<path fill-rule="evenodd" clip-rule="evenodd" d="M75.7311 137.418C91.5486 141.025 102.186 162.948 101.724 181.078C100.984 210.03 71.6611 230.935 45.2985 231.583C41.4135 231.675 18.1034 232.23 10.9809 218.818C-2.15414 194.028 44.7435 130.388 75.7311 137.418Z" fill="url(#paint3_linear)"/>
<path d="M13.5709 144.541C13.0159 145.558 8.02084 155.271 11.4434 162.486C18.2884 177.009 56.676 176.176 61.5785 164.428C66.0185 153.883 46.2234 128.816 29.0184 132.146C22.4509 133.441 16.7159 138.713 13.5709 144.541Z" fill="#42599C"/>
<path d="M6.91084 186.812C8.20584 191.252 12.4609 195.692 17.8259 195.23C24.0234 194.767 28.0934 188.107 27.2609 183.112C26.0584 175.99 14.4959 171.92 9.31585 175.99C6.26334 178.302 5.89334 183.297 6.91084 186.812Z" fill="#42599C"/>
<path d="M96.3586 192.364C90.0686 189.496 77.396 197.914 74.436 209.199C71.7535 219.929 77.8585 232.879 84.2411 233.619C92.5661 234.544 104.591 215.119 101.076 200.226C100.614 198.099 99.5961 193.844 96.3586 192.364Z" fill="#42599C"/>
<path d="M65.741 163.874H72.956V152.589H63.9834H62.1334C62.1334 152.589 55.3809 152.404 51.0334 158.046C51.0334 158.046 48.0734 160.821 48.0734 168.961V177.471H37.4359V189.496H48.0734V220.484H60.3759V189.404H70.921L72.401 177.379H60.3759V168.869C60.3759 168.036 60.8384 163.781 65.741 163.874Z" fill="white"/>
<path d="M166.196 137.142C147.789 139.547 130.121 160.174 129.936 179.229C129.566 212.159 181.366 242.314 207.266 228.162C219.939 221.224 229.651 201.892 224.101 183.947C220.309 171.829 203.566 174.049 195.704 157.677C192.559 151.109 193.114 147.039 188.304 142.692C180.811 135.847 169.526 136.772 166.196 137.142Z" fill="url(#paint4_linear)"/>
<path d="M219.569 145.004C215.036 133.256 196.999 128.261 185.806 136.401C176.001 143.524 173.319 159.526 181.644 168.499C188.766 176.176 201.254 175.714 209.486 170.441C217.811 165.169 223.084 154.069 219.569 145.004Z" fill="#E8B100"/>
<path d="M142.331 187.832C132.989 188.757 129.196 199.857 128.919 200.412C125.681 210.125 130.214 222.705 137.706 224.925C146.864 227.607 161.571 214.657 159.536 202.355C158.241 194.862 150.656 187 142.331 187.832Z" fill="#E8B100"/>
<path d="M162.959 217.431C157.594 220.391 153.801 227.513 155.836 231.028C158.704 236.116 174.706 235.376 177.296 228.623C178.869 224.461 175.724 217.523 170.451 216.043C167.121 215.118 164.069 216.783 162.959 217.431Z" fill="#E8B100"/>
<g filter="url(#filter0_d)">
<path fill-rule="evenodd" clip-rule="evenodd" d="M176.279 161.654C160.697 161.654 148.066 174.285 148.066 189.867C148.066 205.448 160.697 218.079 176.279 218.079C191.86 218.079 204.491 205.448 204.491 189.867C204.491 174.285 191.86 161.654 176.279 161.654ZM175.903 177.59H172.973L169.52 173.656C169.119 173.174 169.199 172.492 169.641 172.09C170.122 171.689 170.805 171.769 171.206 172.211L175.903 177.59ZM182.849 175.943C183.29 175.502 183.29 174.819 182.849 174.378C182.407 173.936 181.725 173.936 181.283 174.378L178.111 177.549H181.203L182.849 175.943ZM176.867 178.794H191.119C192.484 178.794 193.608 179.918 193.608 181.283V199.148C193.608 200.513 192.484 201.637 191.119 201.637H187.265H166.469H162.615C161.251 201.637 160.126 200.513 160.126 199.148V181.283C160.126 179.918 161.251 178.794 162.615 178.794H176.867ZM182.046 198.144C183.009 198.144 183.772 197.382 183.772 196.418V184.053C183.772 183.09 183.009 182.327 182.046 182.327H165.546C164.583 182.327 163.82 183.09 163.82 184.053V196.418C163.82 197.382 164.583 198.144 165.546 198.144H182.046ZM190.517 192.926C190.717 192.926 190.878 192.765 190.878 192.564V189.834C190.878 189.634 190.717 189.473 190.517 189.473H186.903C186.703 189.473 186.542 189.634 186.542 189.834V192.564C186.542 192.765 186.703 192.926 186.903 192.926H190.517ZM190.517 187.145C190.717 187.145 190.878 186.984 190.878 186.783V184.053C190.878 183.853 190.717 183.692 190.517 183.692H186.903C186.703 183.692 186.542 183.853 186.542 184.053V186.783C186.542 186.984 186.703 187.145 186.903 187.145H190.517ZM162.615 203.844C162.615 204.567 163.178 205.129 163.9 205.129H165.185C165.907 205.129 166.469 204.567 166.469 203.844V202.841H162.615V203.844ZM188.549 205.129C187.826 205.129 187.264 204.567 187.264 203.844V202.841H191.118V203.844C191.118 204.567 190.556 205.129 189.834 205.129H188.549Z" fill="white"/>
</g>
<path d="M287.464 274.318C286.169 274.965 267.299 284.4 264.616 303.178C260.731 329.726 292.274 352.481 313.642 360.251C323.262 363.766 338.802 369.408 349.624 360.991C364.239 349.613 362.667 318.071 350.919 298.275C338.062 276.723 309.849 263.495 287.464 274.318Z" fill="url(#paint5_linear)"/>
<path d="M268.131 327.691C259.806 333.056 259.159 348.596 265.356 357.291C276.179 372.646 308.277 367.374 311.422 357.106C314.012 348.596 297.084 335.831 296.252 335.276C292.274 332.316 277.751 321.494 268.131 327.691Z" fill="#5D3089"/>
<path d="M368.217 309.284C364.424 305.584 356.839 306.324 351.752 309.839C347.497 312.799 343.797 318.626 345.369 324.176C347.312 330.744 356.007 333.519 362.112 330.929C370.529 327.414 373.582 314.464 368.217 309.284Z" fill="#5D3089"/>
<path d="M327.979 269.139C322.522 276.631 326.592 291.894 335.564 298.646C345.184 305.954 359.892 303.086 363.499 295.409C367.847 285.881 356.377 267.104 342.779 264.606C341.947 264.329 332.512 262.756 327.979 269.139Z" fill="#5D3089"/>
<path d="M326.958 336.251C326.822 335.923 326.482 335.713 326.128 335.738C325.782 335.763 325.481 336.008 325.386 336.341C325.289 336.677 325.419 337.045 325.702 337.248C325.981 337.449 326.365 337.454 326.651 337.264C326.977 337.046 327.107 336.614 326.958 336.251Z" fill="#FBFBFB"/>
<path d="M333.897 319.946C334.357 319.946 334.731 319.572 334.731 319.111V295.688C334.731 295.227 334.357 294.854 333.897 294.854H293.229C292.768 294.854 292.394 295.227 292.394 295.688V319.111C292.394 319.572 292.768 319.946 293.229 319.946H309.701V327.411C308.827 326.263 307.449 325.551 305.957 325.551C305.877 325.551 305.797 325.553 305.716 325.557C304.621 323.966 302.805 322.998 300.852 322.998C297.696 322.998 295.11 325.487 294.954 328.604C293.402 329.39 292.394 330.995 292.394 332.767C292.394 335.112 294.148 337.101 296.473 337.393C296.507 337.397 296.541 337.4 296.576 337.4H298.823C299.284 337.4 299.657 337.027 299.658 336.566C299.658 336.105 299.284 335.731 298.824 335.731H296.632C295.164 335.523 294.063 334.257 294.063 332.767C294.063 331.498 294.867 330.362 296.064 329.942C296.413 329.819 296.639 329.483 296.621 329.114C296.617 329.041 296.616 328.97 296.616 328.903C296.616 326.567 298.516 324.667 300.852 324.667C302.389 324.667 303.809 325.503 304.557 326.85C304.729 327.161 305.08 327.327 305.43 327.266C305.607 327.235 305.785 327.219 305.957 327.219C307.233 327.219 308.379 328.026 308.81 329.227C308.935 329.575 309.276 329.801 309.644 329.778C309.663 329.777 309.683 329.776 309.701 329.775V335.739C309.084 335.74 306.022 335.732 305.518 335.732C305.058 335.732 304.684 336.106 304.684 336.567C304.684 337.027 305.058 337.401 305.518 337.401H316.59C316.627 337.401 316.663 337.398 316.699 337.393C316.71 337.395 316.722 337.397 316.734 337.398C316.767 337.402 316.801 337.404 316.835 337.404H322.842C323.303 337.404 323.676 337.029 323.676 336.568C323.676 336.108 323.302 335.735 322.842 335.735H316.889C316.858 335.731 316.828 335.726 316.798 335.72C316.781 335.716 316.763 335.711 316.745 335.708C315.378 335.45 314.374 334.282 314.312 332.902C314.301 332.655 314.321 332.406 314.371 332.164C314.652 330.802 315.86 329.775 317.304 329.775C317.357 329.775 317.415 329.777 317.482 329.781C317.85 329.803 318.19 329.578 318.315 329.23C318.804 327.867 320.212 327.009 321.696 327.27C322.046 327.331 322.396 327.164 322.569 326.853C323.317 325.506 324.737 324.67 326.274 324.67C328.61 324.67 330.51 326.57 330.51 328.906C330.51 328.973 330.508 329.044 330.505 329.117C330.487 329.486 330.713 329.823 331.061 329.945C332.258 330.366 333.063 331.501 333.063 332.77C333.063 334.26 331.962 335.526 330.494 335.734H329.537C329.076 335.734 328.702 336.108 328.703 336.569C328.703 337.029 329.076 337.403 329.537 337.403H330.55C330.584 337.403 330.619 337.4 330.653 337.396C332.978 337.104 334.731 335.116 334.731 332.77C334.731 330.998 333.724 329.393 332.171 328.608C332.016 325.49 329.43 323.001 326.274 323.001C324.321 323.001 322.505 323.969 321.409 325.56C319.822 325.477 318.344 326.204 317.425 327.414V319.945L333.897 319.946ZM294.063 296.522H333.063V318.277H294.063V296.522ZM315.756 328.368C314.131 328.938 312.947 330.37 312.692 332.076C312.636 332.449 312.626 332.828 312.661 333.203C312.697 333.605 312.804 333.98 312.922 334.364C313.104 334.865 313.37 335.327 313.704 335.732H311.369V319.946H315.756V328.368Z" fill="#FBFBFB"/>
<path d="M329.656 306.35H317.409C316.948 306.35 316.574 306.723 316.574 307.184C316.574 307.645 316.948 308.018 317.409 308.018H329.656C330.117 308.018 330.49 307.645 330.49 307.184C330.49 306.723 330.117 306.35 329.656 306.35Z" fill="#FBFBFB"/>
<path d="M329.655 309.988H319.598C319.137 309.988 318.763 310.362 318.763 310.823C318.763 311.283 319.137 311.657 319.598 311.657H329.655C330.116 311.657 330.49 311.283 330.49 310.823C330.49 310.362 330.116 309.988 329.655 309.988Z" fill="#FBFBFB"/>
<path d="M315.999 314.052C316.147 313.79 316.142 313.468 315.987 313.21L308.444 300.725C308.293 300.475 308.022 300.322 307.73 300.322C307.438 300.322 307.167 300.475 307.016 300.725L303.966 305.774L303.321 304.707C303.17 304.457 302.899 304.304 302.607 304.304C302.315 304.304 302.044 304.457 301.893 304.707L296.756 313.21C296.601 313.468 296.596 313.79 296.744 314.052C296.891 314.314 297.169 314.476 297.47 314.476H315.273C315.574 314.476 315.852 314.314 315.999 314.052ZM298.949 312.808L302.608 306.752L306.266 312.808H298.949ZM308.215 312.808L304.941 307.387L307.73 302.77L313.794 312.808H308.215Z" fill="#FBFBFB"/>
<path d="M315.232 304.381H326.312C326.773 304.381 327.146 304.008 327.146 303.547C327.146 303.086 326.773 302.713 326.312 302.713H315.232C314.772 302.713 314.398 303.086 314.398 303.547C314.398 304.008 314.772 304.381 315.232 304.381Z" fill="#FBFBFB"/>
<path d="M328.885 303.866C328.906 303.916 328.932 303.964 328.961 304.011C328.992 304.056 329.027 304.099 329.066 304.137C329.104 304.176 329.147 304.211 329.193 304.241C329.238 304.271 329.286 304.297 329.337 304.318C329.387 304.338 329.44 304.354 329.493 304.365C329.546 304.376 329.601 304.382 329.656 304.382C329.71 304.382 329.765 304.376 329.818 304.365C329.872 304.354 329.924 304.338 329.974 304.318C330.025 304.297 330.074 304.271 330.119 304.241C330.165 304.211 330.207 304.176 330.245 304.137C330.284 304.099 330.319 304.056 330.349 304.011C330.379 303.964 330.405 303.916 330.426 303.866C330.447 303.816 330.462 303.763 330.473 303.71C330.484 303.657 330.49 303.602 330.49 303.548C330.49 303.493 330.484 303.438 330.473 303.384C330.462 303.33 330.447 303.278 330.426 303.228C330.405 303.178 330.379 303.129 330.349 303.084C330.319 303.039 330.284 302.996 330.245 302.958C330.207 302.918 330.165 302.884 330.119 302.853C330.074 302.823 330.025 302.797 329.974 302.777C329.924 302.756 329.872 302.74 329.818 302.729C329.711 302.707 329.6 302.707 329.493 302.729C329.44 302.74 329.387 302.756 329.337 302.777C329.286 302.797 329.238 302.823 329.193 302.853C329.147 302.884 329.104 302.918 329.066 302.958C329.027 302.996 328.992 303.039 328.961 303.084C328.932 303.129 328.906 303.178 328.885 303.228C328.864 303.278 328.848 303.33 328.837 303.384C328.826 303.438 328.822 303.492 328.822 303.548C328.822 303.602 328.826 303.657 328.837 303.71C328.848 303.763 328.864 303.816 328.885 303.866Z" fill="#FBFBFB"/>
<path d="M302.939 336.247C302.806 335.924 302.473 335.715 302.124 335.734C301.778 335.752 301.472 335.992 301.371 336.324C301.271 336.654 301.39 337.018 301.661 337.228C301.94 337.444 302.34 337.456 302.632 337.26C302.958 337.042 303.09 336.611 302.939 336.247Z" fill="#FBFBFB"/>
<path d="M38.2683 269.23C22.0808 273.116 9.68576 291.246 8.76075 307.988C7.00325 341.936 52.3284 371.443 79.9859 360.991C89.791 357.291 97.746 348.318 100.521 338.236C109.124 306.971 69.1634 261.738 38.2683 269.23Z" fill="url(#paint6_linear)"/>
<path d="M85.166 264.975C77.951 262.015 69.9035 264.605 65.186 268.583C53.9009 278.018 54.8259 300.773 65.6485 306.693C75.0835 311.873 92.6585 304.935 96.636 291.708C99.411 282.088 95.156 269.045 85.166 264.975Z" fill="#DC0F0C"/>
<path d="M99.781 301.42C95.0635 300.773 87.6635 307.525 88.681 314.555C89.8835 322.048 99.966 325.933 104.221 323.528C109.309 320.568 108.106 307.248 102.279 302.623C101.169 301.79 100.336 301.513 99.781 301.42Z" fill="#DC0F0C"/>
<path d="M24.8558 330.465C15.6983 326.95 4.78327 332.5 1.17576 341.842C-2.61675 351.832 3.21077 363.672 12.2758 366.447C23.0983 369.685 35.4008 359.417 35.9559 348.04C36.3259 341.01 32.1633 333.24 24.8558 330.465Z" fill="#DC0F0C"/>
<path fill-rule="evenodd" clip-rule="evenodd" d="M201.531 270.525C189.321 266.085 174.151 270.155 164.624 282.365C154.634 295.223 168.046 304.565 149.084 316.405C136.596 324.083 130.491 334.443 130.769 341.38C131.139 352.11 147.326 359.326 148.436 359.788C168.971 368.668 203.659 361.916 216.979 336.2C229.466 312.335 220.771 277.555 201.531 270.525Z" fill="url(#paint7_linear)"/>
<path fill-rule="evenodd" clip-rule="evenodd" d="M126.421 301.514C127.716 315.574 142.331 327.507 153.339 326.489C173.596 324.547 186.546 278.574 176.001 267.104C168.509 258.964 147.141 265.902 135.579 279.222C132.434 282.922 125.496 290.877 126.421 301.514Z" fill="#0091C4"/>
<path fill-rule="evenodd" clip-rule="evenodd" d="M214.296 316.406C214.389 321.401 217.996 325.378 221.789 326.673C229.466 329.263 239.364 321.401 238.809 314.741C238.254 308.358 227.801 302.531 220.679 305.953C217.256 307.803 214.204 311.781 214.296 316.406Z" fill="#0091C4"/>
<path fill-rule="evenodd" clip-rule="evenodd" d="M215.684 329.449C208.191 325.471 197.554 326.674 191.171 334.074C185.251 341.011 185.159 350.909 189.414 357.569C196.259 368.299 214.111 370.427 222.344 361.177C230.114 352.204 226.876 335.369 215.684 329.449Z" fill="#0091C4"/>
<path d="M170.081 344.803C195.334 344.803 209.209 323.805 209.209 305.675C209.209 305.12 209.209 304.473 209.209 303.918C211.891 301.975 214.204 299.57 216.054 296.795C213.556 297.905 210.966 298.645 208.191 298.923C211.059 297.258 213.186 294.483 214.204 291.338C211.521 292.91 208.561 294.02 205.509 294.668C203.011 291.985 199.404 290.32 195.519 290.32C187.934 290.32 181.736 296.518 181.736 304.103C181.736 305.213 181.829 306.23 182.106 307.248C170.636 306.693 160.554 301.235 153.801 292.91C152.599 294.945 151.951 297.258 151.951 299.848C151.951 304.658 154.356 308.82 158.056 311.318C155.836 311.225 153.709 310.67 151.859 309.56C151.859 309.653 151.859 309.653 151.859 309.745C151.859 316.405 156.576 321.955 162.866 323.25C161.756 323.528 160.461 323.713 159.259 323.713C158.334 323.713 157.501 323.62 156.669 323.435C158.426 328.893 163.514 332.87 169.526 332.963C164.809 336.663 158.889 338.883 152.414 338.883C151.304 338.883 150.194 338.79 149.176 338.698C155.096 342.49 162.311 344.803 170.081 344.803Z" fill="white"/>
<path d="M321.782 138.438C339.079 140.843 354.434 160.915 355.267 180.71C356.469 208.738 328.534 229.921 303.374 232.603C301.617 232.788 272.479 235.563 263.506 219.838C249.539 195.418 288.204 133.72 321.782 138.438Z" fill="url(#paint8_linear)"/>
<path d="M296.807 136.679C302.727 142.414 301.524 152.589 298.194 158.602C291.627 170.534 272.571 174.234 266.466 167.944C259.714 160.914 266.466 138.621 280.064 133.904C284.874 132.331 292.182 132.239 296.807 136.679Z" fill="#227CC8"/>
<path d="M269.611 179.6C273.404 181.912 274.884 186.445 274.421 190.052C273.496 196.99 265.264 202.262 259.621 200.042C253.701 197.73 251.204 187.092 256.199 181.635C259.251 178.397 265.171 176.917 269.611 179.6Z" fill="#227CC8"/>
<path d="M354.527 228.07C350.827 232.602 343.519 237.227 336.952 234.915C328.534 231.955 324.927 218.82 329.367 209.662C333.807 200.412 346.109 195.325 353.324 199.58C361.464 204.297 361.464 219.652 354.527 228.07Z" fill="#2D5E89"/>
<path d="M281.729 172.013H293.477V209.661H281.729V172.013ZM287.557 153.328C291.257 153.328 294.309 156.381 294.309 160.081C294.309 163.781 291.257 166.833 287.557 166.833C283.764 166.833 280.804 163.781 280.804 160.081C280.804 156.381 283.856 153.328 287.557 153.328Z" fill="white"/>
<path d="M300.784 172.013H311.977V177.193H312.162C313.734 174.233 317.527 171.088 323.262 171.088C335.102 171.088 337.322 178.858 337.322 189.033V209.66H325.667V191.345C325.667 186.998 325.574 181.355 319.562 181.355C313.457 181.355 312.532 186.073 312.532 191.068V209.66H300.877V172.013H300.784Z" fill="white"/>
<path d="M158.046 71.0002C157.111 71.0002 156.204 70.8499 155.348 70.5539L153.399 69.8797L154.897 68.4618C156.879 66.5851 157.379 64.4204 157.411 62.799C153.986 59.0011 152.106 54.263 152.106 49.4034C152.105 37.4951 163.151 27.8066 176.727 27.8066C190.304 27.8066 201.35 37.4951 201.35 49.4034C201.35 61.3111 190.304 70.9989 176.727 70.9989C172.685 70.9989 168.697 70.1232 165.144 68.4593C163.805 69.4077 161.1 71.0002 158.046 71.0002ZM164.85 65.5196L165.569 65.8833C168.947 67.5916 172.806 68.4956 176.726 68.4956C188.923 68.4956 198.845 59.9307 198.845 49.404C198.845 38.8761 188.923 30.3112 176.726 30.3112C164.53 30.3112 154.608 38.8761 154.608 49.4034C154.608 53.7785 156.37 58.0559 159.569 61.4469L159.895 61.7918L159.91 62.2657C159.965 63.9678 159.659 66.2758 158.146 68.495C161.046 68.4486 163.711 66.4304 164.221 66.0229L164.85 65.5196Z" fill="#FBFBFB"/>
<path d="M164.785 55.3095C163.867 55.3095 163.121 55.2375 162.545 55.0929C161.97 54.9495 161.573 54.8018 161.354 54.6515C161.299 54.5965 161.279 54.4706 161.292 54.2716C161.305 54.0744 161.336 53.8678 161.384 53.6562C161.432 53.4446 161.494 53.2543 161.569 53.0922C161.644 52.9282 161.716 52.8518 161.785 52.8662C162.141 52.9895 162.528 53.1097 162.946 53.2255C163.363 53.3413 163.894 53.3996 164.538 53.3996C165.196 53.3996 165.753 53.305 166.213 53.1122C166.671 52.9201 166.901 52.5776 166.901 52.085C166.901 51.6587 166.75 51.3138 166.449 51.0471C166.148 50.7804 165.606 50.4956 164.826 50.1957C164.401 50.0298 164 49.8489 163.624 49.6499C163.246 49.452 162.915 49.2186 162.627 48.9513C162.339 48.6846 162.114 48.366 161.949 47.9966C161.784 47.6273 161.702 47.1885 161.702 46.6814C161.702 46.2707 161.781 45.8801 161.938 45.5102C162.096 45.1402 162.339 44.8216 162.668 44.5549C162.996 44.2882 163.418 44.0754 163.932 43.9183C164.446 43.7605 165.058 43.6816 165.771 43.6816C166.236 43.6816 166.623 43.6923 166.931 43.7123C167.239 43.733 167.492 43.7605 167.692 43.7949C167.89 43.8294 168.051 43.8669 168.175 43.9082C168.298 43.9496 168.414 43.9834 168.524 44.0109C168.62 44.0516 168.668 44.1718 168.668 44.3702C168.668 44.5687 168.64 44.7809 168.585 45.0075C168.531 45.2329 168.455 45.4319 168.36 45.6028C168.264 45.7743 168.168 45.8463 168.072 45.8188C167.839 45.7505 167.52 45.6754 167.117 45.5934C166.712 45.5108 166.319 45.4701 165.935 45.4701C165.154 45.4701 164.617 45.5803 164.323 45.7988C164.028 46.0178 163.881 46.3121 163.881 46.682C163.881 47.0795 164.046 47.3982 164.374 47.6373C164.703 47.8764 165.217 48.1199 165.915 48.3666C167.024 48.8048 167.843 49.3081 168.37 49.8765C168.897 50.4449 169.161 51.1604 169.161 52.0236C169.161 52.6678 169.038 53.2024 168.792 53.6274C168.545 54.0518 168.216 54.388 167.805 54.6328C167.395 54.8807 166.925 55.0547 166.398 55.1574C165.87 55.2581 165.333 55.3095 164.785 55.3095Z" fill="#FBFBFB"/>
<path d="M179.597 55.2066C179.309 55.2066 179.121 55.159 179.033 55.0626C178.942 54.9675 178.899 54.7828 178.899 54.5073V47.3166C178.352 48.2067 177.929 48.8947 177.634 49.3811C177.339 49.8681 177.125 50.2243 176.987 50.4503C176.85 50.675 176.768 50.8096 176.74 50.8503C176.713 50.8916 176.7 50.9198 176.7 50.9336C176.577 51.1389 176.491 51.2722 176.444 51.3342C176.395 51.3974 176.295 51.4262 176.145 51.4262H175.816C175.638 51.4262 175.521 51.3955 175.467 51.3342C175.412 51.2722 175.33 51.1389 175.22 50.9336L173.124 47.3591V54.6325C173.124 54.811 173.094 54.9518 173.032 55.0545C172.97 55.1571 172.81 55.2085 172.549 55.2085H171.687C171.495 55.2085 171.328 55.1778 171.183 55.1158C171.04 55.0545 170.967 54.8529 170.967 54.5092V44.6467C170.967 44.3725 171.019 44.191 171.121 44.1021C171.224 44.0132 171.371 43.9688 171.563 43.9688H172.591C172.741 43.9688 172.868 43.9888 172.97 44.0301C173.073 44.0714 173.179 44.1741 173.289 44.3381L176.021 48.6937L178.753 44.3794C178.836 44.2285 178.934 44.1227 179.053 44.0608C179.17 43.9988 179.281 43.9688 179.391 43.9688H180.522C180.782 43.9688 180.932 44.0232 180.974 44.1328C181.016 44.2429 181.036 44.4207 181.036 44.6674V54.61C181.036 54.8153 181.009 54.9668 180.954 55.0632C180.899 55.1596 180.741 55.2066 180.482 55.2066H179.597Z" fill="#FBFBFB"/>
<path d="M186.439 55.3095C185.521 55.3095 184.776 55.2375 184.2 55.0929C183.625 54.9495 183.227 54.8018 183.009 54.6515C182.954 54.5965 182.933 54.4706 182.946 54.2716C182.96 54.0744 182.99 53.8678 183.038 53.6562C183.086 53.4446 183.147 53.2543 183.223 53.0922C183.298 52.9276 183.369 52.8518 183.439 52.8662C183.795 52.9895 184.183 53.1097 184.6 53.2255C185.017 53.342 185.547 53.3996 186.192 53.3996C186.849 53.3996 187.406 53.305 187.867 53.1122C188.324 52.9201 188.556 52.5776 188.556 52.085C188.556 51.6587 188.404 51.3138 188.103 51.0471C187.801 50.7804 187.26 50.4956 186.479 50.1957C186.054 50.0298 185.654 49.8489 185.277 49.6499C184.9 49.452 184.568 49.2186 184.28 48.9513C183.992 48.6846 183.767 48.366 183.602 47.9966C183.437 47.6267 183.355 47.1885 183.355 46.6814C183.355 46.2707 183.435 45.8801 183.591 45.5102C183.749 45.1402 183.992 44.8216 184.321 44.5549C184.65 44.2882 185.07 44.0754 185.584 43.9183C186.099 43.7605 186.712 43.6816 187.424 43.6816C187.889 43.6816 188.277 43.6923 188.584 43.7123C188.892 43.733 189.145 43.7605 189.345 43.7949C189.543 43.8294 189.704 43.8669 189.828 43.9082C189.951 43.9489 190.068 43.9834 190.178 44.0109C190.273 44.0516 190.321 44.1718 190.321 44.3702C190.321 44.5687 190.293 44.7809 190.238 45.0075C190.184 45.2329 190.108 45.4319 190.014 45.6028C189.917 45.7743 189.821 45.8463 189.725 45.8188C189.493 45.7505 189.173 45.6754 188.771 45.5934C188.366 45.5108 187.973 45.4701 187.589 45.4701C186.808 45.4701 186.27 45.5803 185.977 45.7988C185.682 46.0178 185.534 46.3121 185.534 46.682C185.534 47.0795 185.7 47.3982 186.028 47.6373C186.356 47.8764 186.871 48.1199 187.569 48.3666C188.677 48.8048 189.497 49.3081 190.024 49.8765C190.551 50.4449 190.815 51.1604 190.815 52.0236C190.815 52.6678 190.692 53.2024 190.446 53.6274C190.199 54.0518 189.87 54.388 189.459 54.6328C189.049 54.8807 188.579 55.0547 188.052 55.1574C187.523 55.2581 186.987 55.3095 186.439 55.3095Z" fill="#FBFBFB"/>
<path d="M53.5966 292C40.5647 292 30 302.565 30 315.597C30 328.629 40.5647 339.194 53.5966 339.194C66.6285 339.194 77.194 328.629 77.194 315.597C77.194 302.565 66.6285 292 53.5966 292ZM53.5971 300.288L67.5609 308.996H39.6332L53.5971 300.288ZM67.7349 322.9H67.7335C67.7335 324.297 66.6016 325.429 65.2051 325.429H41.9891C40.5924 325.429 39.4607 324.297 39.4607 322.9V309.55C39.4607 309.402 39.4758 309.259 39.5003 309.117L52.842 317.437C52.8583 317.447 52.8758 317.454 52.8926 317.463C52.9102 317.473 52.9282 317.483 52.9461 317.491C53.0403 317.54 53.1374 317.579 53.2367 317.605C53.2469 317.608 53.2571 317.609 53.2673 317.611C53.3762 317.637 53.4865 317.653 53.5966 317.653C53.5974 317.653 53.599 317.653 53.599 317.653C53.7091 317.653 53.8194 317.637 53.9282 317.611C53.9385 317.609 53.9487 317.608 53.9589 317.605C54.058 317.579 54.1548 317.54 54.2495 317.491C54.2674 317.483 54.2853 317.473 54.303 317.463C54.3196 317.454 54.3373 317.447 54.3536 317.437L67.6953 309.117C67.7198 309.259 67.7349 309.402 67.7349 309.55V322.9Z" fill="white"/>
<defs>
<filter id="filter0_d" x="128.066" y="161.654" width="76.4251" height="76.4251" filterUnits="userSpaceOnUse" color-interpolation-filters="sRGB">
<feFlood flood-opacity="0" result="BackgroundImageFix"/>
<feColorMatrix in="SourceAlpha" type="matrix" values="0 0 0 0 0 0 0 0 0 0 0 0 0 0 0 0 0 0 127 0"/>
<feOffset dx="-10" dy="10"/>
<feGaussianBlur stdDeviation="5"/>
<feColorMatrix type="matrix" values="0 0 0 0 0 0 0 0 0 0 0 0 0 0 0 0 0 0 0.05 0"/>
<feBlend mode="normal" in2="BackgroundImageFix" result="effect1_dropShadow"/>
<feBlend mode="normal" in="SourceGraphic" in2="effect1_dropShadow" result="shape"/>
</filter>
<linearGradient id="paint0_linear" x1="200.755" y1="6.9238" x2="151.662" y2="85.541" gradientUnits="userSpaceOnUse">
<stop stop-color="#13B548"/>
<stop offset="1" stop-color="#8DCE3A"/>
</linearGradient>
<linearGradient id="paint1_linear" x1="30.8779" y1="4.39894" x2="75.8173" y2="103.81" gradientUnits="userSpaceOnUse">
<stop stop-color="#6251D3"/>
<stop offset="0.5585" stop-color="#B22D9E"/>
<stop offset="1" stop-color="#F50F72"/>
</linearGradient>
<linearGradient id="paint2_linear" x1="320.947" y1="4.55329" x2="297.967" y2="78.6009" gradientUnits="userSpaceOnUse">
<stop stop-color="#DC0F0C"/>
<stop offset="1" stop-color="#9B0000"/>
</linearGradient>
<linearGradient id="paint3_linear" x1="33.4165" y1="232.49" x2="81.9305" y2="146.186" gradientUnits="userSpaceOnUse">
<stop stop-color="#42599C"/>
<stop offset="1" stop-color="#0283EB"/>
</linearGradient>
<linearGradient id="paint4_linear" x1="167.691" y1="137.457" x2="184.714" y2="221.208" gradientUnits="userSpaceOnUse">
<stop stop-color="#FFE100"/>
<stop offset="1" stop-color="#E8B100"/>
</linearGradient>
<linearGradient id="paint5_linear" x1="283.353" y1="274.527" x2="344.237" y2="359.897" gradientUnits="userSpaceOnUse">
<stop stop-color="#7B519D"/>
<stop offset="1" stop-color="#5D3089"/>
</linearGradient>
<linearGradient id="paint6_linear" x1="29.6849" y1="274.903" x2="74.6242" y2="351.504" gradientUnits="userSpaceOnUse">
<stop stop-color="#DC0F0C"/>
<stop offset="1" stop-color="#9B0000"/>
</linearGradient>
<linearGradient id="paint7_linear" x1="207.559" y1="273.061" x2="162.109" y2="358.854" gradientUnits="userSpaceOnUse">
<stop stop-color="#01ABF9"/>
<stop offset="1" stop-color="#0091C4"/>
</linearGradient>
<linearGradient id="paint8_linear" x1="288.898" y1="151.483" x2="324.305" y2="229.105" gradientUnits="userSpaceOnUse">
<stop stop-color="#227CC8"/>
<stop offset="1" stop-color="#2D5E89"/>
</linearGradient>
</defs>
</svg>
